<svg xmlns="http://www.w3.org/2000/svg"><style>:root svg:not(:target){display:none}</style><svg viewBox="0 0 36 36" fill="none" id="1"><rect width="36" height="36" rx="18" fill="white"></rect><path d="M12.9 25V22.52H16.1V14.04L12.9 16.32V13.4L16.28 11H19.1V22.52H21.7V25H12.9Z" fill="#313131"></path></svg><svg viewBox="0 0 36 36" fill="none" id="2"><rect width="36" height="36" rx="18" fill="white"></rect><path d="M12.6 25V22.82L17.5 18.6C18.1133 18.0533 18.6 17.6067 18.96 17.26C19.3333 16.9 19.6 16.56 19.76 16.24C19.92 15.92 20 15.5733 20 15.2C20 14.6267 19.84 14.1667 19.52 13.82C19.2133 13.46 18.74 13.28 18.1 13.28C17.3667 13.28 16.8 13.48 16.4 13.88C16 14.2667 15.8 14.9333 15.8 15.88H12.8C12.8 14.8267 13 13.92 13.4 13.16C13.8 12.3867 14.3933 11.7933 15.18 11.38C15.98 10.9667 16.9533 10.76 18.1 10.76C19.1667 10.76 20.0667 10.9533 20.8 11.34C21.5333 11.7133 22.08 12.2333 22.44 12.9C22.8133 13.5667 23 14.3333 23 15.2C23 15.84 22.8467 16.44 22.54 17C22.2467 17.56 21.8533 18.0933 21.36 18.6C20.8667 19.1067 20.3133 19.6133 19.7 20.12L16.82 22.52H23.2V25H12.6Z" fill="#313131"></path></svg><svg viewBox="0 0 36 36" fill="none" id="3"><rect width="36" height="36" rx="18" fill="white"></rect><path d="M17.9 25.24C16.7667 25.24 15.8133 25.06 15.04 24.7C14.2667 24.3267 13.68 23.8 13.28 23.12C12.8933 22.44 12.7 21.6333 12.7 20.7H15.7C15.7 21.38 15.8733 21.8867 16.22 22.22C16.5667 22.5533 17.1267 22.72 17.9 22.72C18.6333 22.72 19.18 22.56 19.54 22.24C19.9133 21.9067 20.1 21.44 20.1 20.84C20.1 20.2133 19.9133 19.74 19.54 19.42C19.18 19.1 18.6333 18.94 17.9 18.94H16.58V16.66H17.9C18.54 16.66 19.0333 16.5267 19.38 16.26C19.7267 15.98 19.9 15.5533 19.9 14.98C19.9 14.4867 19.7333 14.08 19.4 13.76C19.0667 13.44 18.5667 13.28 17.9 13.28C17.22 13.28 16.7133 13.4333 16.38 13.74C16.06 14.0467 15.9 14.5 15.9 15.1H12.9C12.9 14.18 13.08 13.4 13.44 12.76C13.8133 12.1067 14.3733 11.6133 15.12 11.28C15.8667 10.9333 16.7933 10.76 17.9 10.76C19.0067 10.76 19.9333 10.9267 20.68 11.26C21.4267 11.5933 21.98 12.0467 22.34 12.62C22.7133 13.1933 22.9 13.84 22.9 14.56C22.9 15.3467 22.68 16.0133 22.24 16.56C21.8133 17.0933 21.24 17.4733 20.52 17.7C21.3467 17.9267 21.98 18.3267 22.42 18.9C22.8733 19.46 23.1 20.1933 23.1 21.1C23.1 21.9 22.8867 22.6133 22.46 23.24C22.0467 23.8533 21.4533 24.34 20.68 24.7C19.9067 25.06 18.98 25.24 17.9 25.24Z" fill="#313131"></path></svg><svg viewBox="0 0 36 36" fill="none" id="4"><rect width="36" height="36" rx="18" fill="white"></rect><path d="M19 25V22.04H12.4V19.96L19 11H22V19.56H23.58V22.04H22V25H19ZM15.2 19.56H19V14.34L15.2 19.56Z" fill="#313131"></path></svg><svg viewBox="0 0 36 36" fill="none" id="5"><rect width="36" height="36" rx="18" fill="white"></rect><path d="M18 25.24C17.12 25.24 16.3667 25.1267 15.74 24.9C15.1133 24.6733 14.6 24.3667 14.2 23.98C13.8 23.5933 13.5 23.1533 13.3 22.66C13.1133 22.1667 13.0133 21.6467 13 21.1H16C16.04 21.58 16.22 21.9733 16.54 22.28C16.8733 22.5733 17.36 22.72 18 22.72C18.7333 22.72 19.28 22.5133 19.64 22.1C20.0133 21.6867 20.2 21.0667 20.2 20.24C20.2 19.6533 20.1 19.1867 19.9 18.84C19.7 18.48 19.4333 18.2267 19.1 18.08C18.7667 17.92 18.4 17.84 18 17.84C17.5333 17.84 17.1467 17.9267 16.84 18.1C16.5333 18.26 16.2867 18.4867 16.1 18.78H13.3V11H22.42V13.48H16.3V16.04C16.58 15.7867 16.92 15.6067 17.32 15.5C17.72 15.3933 18.18 15.34 18.7 15.34C19.6067 15.34 20.3933 15.52 21.06 15.88C21.7267 16.24 22.2467 16.7867 22.62 17.52C23.0067 18.24 23.2 19.1467 23.2 20.24C23.2 21.24 22.98 22.12 22.54 22.88C22.1133 23.6267 21.5133 24.2067 20.74 24.62C19.9667 25.0333 19.0533 25.24 18 25.24Z" fill="#313131"></path></svg><svg viewBox="0 0 36 36" fill="none" id="6"><rect width="36" height="36" rx="18" fill="white"></rect><path d="M18.5 25.24C16.7533 25.24 15.4 24.72 14.44 23.68C13.48 22.6267 13 20.9333 13 18.6V18.2C13 16.4133 13.24 14.98 13.72 13.9C14.2133 12.8067 14.8867 12.0133 15.74 11.52C16.6067 11.0133 17.5933 10.76 18.7 10.76C19.5667 10.76 20.32 10.88 20.96 11.12C21.6133 11.36 22.14 11.74 22.54 12.26C22.94 12.7667 23.1933 13.44 23.3 14.28H20.5C20.3667 13.9467 20.14 13.7 19.82 13.54C19.5133 13.3667 19.1067 13.28 18.6 13.28C18.0667 13.28 17.6 13.3933 17.2 13.62C16.8133 13.8333 16.4933 14.2267 16.24 14.8C16 15.3733 15.8533 16.2133 15.8 17.32C16.1467 16.7733 16.6333 16.3933 17.26 16.18C17.9 15.9667 18.5467 15.86 19.2 15.86C20.1467 15.86 20.94 16.0333 21.58 16.38C22.2333 16.7267 22.7333 17.2267 23.08 17.88C23.4267 18.5333 23.6 19.3267 23.6 20.26V20.48C23.6 21.4267 23.38 22.26 22.94 22.98C22.5133 23.6867 21.9133 24.24 21.14 24.64C20.3667 25.04 19.4867 25.24 18.5 25.24ZM18.3 22.72C19.02 22.72 19.58 22.52 19.98 22.12C20.3933 21.7067 20.6 21.18 20.6 20.54V20.34C20.6 19.7 20.3933 19.18 19.98 18.78C19.58 18.38 19.02 18.18 18.3 18.18C17.58 18.18 17.0133 18.38 16.6 18.78C16.2 19.18 16 19.7 16 20.34V20.54C16 21.18 16.2 21.7067 16.6 22.12C17.0133 22.52 17.58 22.72 18.3 22.72Z" fill="#313131"></path></svg><svg viewBox="0 0 36 36" fill="none" id="7"><rect width="36" height="36" rx="18" fill="white"></rect><path d="M14.42 25L19.14 13.48H12.4V11H22.18V13.18L17.6 25H14.42Z" fill="#313131"></path></svg><svg viewBox="0 0 12 20" fill="none" id="arrow-left"><path d="M10.5382 18.4614L2.07666 9.99989L10.5382 1.53835" stroke="white" stroke-width="2" stroke-linecap="square"></path></svg><svg viewBox="0 0 12 20" fill="none" id="arrow-right"><path d="M1.4618 1.5384L9.92334 9.99994L1.4618 18.4615" stroke="white" stroke-width="2" stroke-linecap="square"></path></svg></svg>